<svg width="38" height="38" viewBox="0 0 38 38" fill="none" xmlns="http://www.w3.org/2000/svg">
<g id="basil:cancel-solid">
<path id="Vector" fill-rule="evenodd" clip-rule="evenodd" d="M11.8236 6.69291C16.5933 6.16421 21.4068 6.16421 26.1765 6.69291C28.8174 6.98891 30.9479 9.06862 31.2578 11.7187C31.8235 16.5559 31.8235 21.4426 31.2578 26.2798C31.101 27.5675 30.5138 28.7645 29.5915 29.6768C28.6692 30.589 27.4658 31.163 26.1765 31.3056C21.4069 31.836 16.5932 31.836 11.8236 31.3056C10.5342 31.163 9.3308 30.589 8.40849 29.6768C7.48618 28.7645 6.89903 27.5675 6.74222 26.2798C6.17658 21.4431 6.17658 16.557 6.74222 11.7203C6.89896 10.4328 7.48589 9.23596 8.40789 8.32375C9.32989 7.41155 10.5329 6.83743 11.822 6.69445L11.8236 6.69291ZM13.5579 13.5579C13.7747 13.3414 14.0686 13.2198 14.375 13.2198C14.6814 13.2198 14.9753 13.3414 15.1921 13.5579L19 17.3659L22.8079 13.5579C22.9138 13.4443 23.0414 13.3532 23.1833 13.29C23.3251 13.2268 23.4782 13.1929 23.6335 13.1901C23.7887 13.1874 23.9429 13.2159 24.0869 13.2741C24.2309 13.3322 24.3617 13.4188 24.4714 13.5286C24.5812 13.6384 24.6678 13.7692 24.726 13.9132C24.7841 14.0571 24.8127 14.2113 24.8099 14.3666C24.8072 14.5218 24.7732 14.6749 24.71 14.8168C24.6468 14.9586 24.5557 15.0863 24.4421 15.1921L20.6342 19L24.4421 22.8079C24.6463 23.0271 24.7575 23.317 24.7522 23.6166C24.747 23.9161 24.6256 24.2019 24.4138 24.4138C24.2019 24.6256 23.9161 24.747 23.6166 24.7523C23.317 24.7575 23.0271 24.6464 22.8079 24.4421L19 20.6342L15.1921 24.4421C15.0862 24.5557 14.9586 24.6468 14.8168 24.71C14.6749 24.7732 14.5218 24.8072 14.3666 24.8099C14.2113 24.8127 14.0571 24.7841 13.9131 24.726C13.7692 24.6678 13.6384 24.5813 13.5286 24.4715C13.4188 24.3617 13.3322 24.2309 13.2741 24.0869C13.2159 23.9429 13.1874 23.7887 13.1901 23.6335C13.1928 23.4782 13.2268 23.3251 13.29 23.1833C13.3532 23.0415 13.4443 22.9138 13.5579 22.8079L17.3658 19L13.5579 15.1921C13.3414 14.9753 13.2198 14.6814 13.2198 14.375C13.2198 14.0686 13.3414 13.7747 13.5579 13.5579Z" fill="black"/>
</g>
</svg>
