<svg width="33" height="32" viewBox="0 0 33 32" fill="none" xmlns="http://www.w3.org/2000/svg">
<g id="carbon:in-progress">
<path id="Vector" d="M16.5 2C13.7311 2 11.0243 2.82109 8.72202 4.35943C6.41973 5.89777 4.62532 8.08427 3.56569 10.6424C2.50607 13.2006 2.22882 16.0155 2.76901 18.7313C3.30921 21.447 4.64258 23.9416 6.60051 25.8995C8.55845 27.8574 11.053 29.1908 13.7687 29.731C16.4845 30.2712 19.2994 29.9939 21.8576 28.9343C24.4157 27.8747 26.6022 26.0803 28.1406 23.778C29.6789 21.4757 30.5 18.7689 30.5 16C30.4958 12.2883 29.0194 8.72977 26.3948 6.10518C23.7702 3.48059 20.2117 2.00423 16.5 2ZM16.5 28C13.3174 28 10.2652 26.7357 8.01472 24.4853C5.76429 22.2348 4.50001 19.1826 4.50001 16C4.50001 12.8174 5.76429 9.76516 8.01472 7.51472C10.2652 5.26428 13.3174 4 16.5 4V16L24.981 24.481C23.8688 25.5972 22.547 26.4827 21.0916 27.0866C19.6361 27.6905 18.0757 28.0009 16.5 28Z" fill="black"/>
</g>
</svg>
