<svg width="209" height="209" viewBox="0 0 209 209" fill="none" xmlns="http://www.w3.org/2000/svg">
<g id="material-symbols:schedule">
<path id="Vector" d="M133.238 145.429L145.429 133.238L113.208 101.017V60.9584H95.7917V107.983L133.238 145.429ZM104.5 191.583C92.4535 191.583 81.1327 189.296 70.5375 184.721C59.9424 180.146 50.7261 173.943 42.8886 166.112C35.051 158.274 28.8478 149.058 24.2788 138.463C19.7099 127.867 17.4225 116.547 17.4167 104.5C17.4167 92.4536 19.7041 81.1327 24.2788 70.5376C28.8536 59.9424 35.0569 50.7261 42.8886 42.8886C50.7261 35.0511 59.9424 28.8479 70.5375 24.2789C81.1327 19.7099 92.4535 17.4226 104.5 17.4167C116.547 17.4167 127.867 19.7041 138.463 24.2789C149.058 28.8537 158.274 35.0569 166.111 42.8886C173.949 50.7261 180.155 59.9424 184.73 70.5376C189.305 81.1327 191.589 92.4536 191.583 104.5C191.583 116.547 189.296 127.867 184.721 138.463C180.146 149.058 173.943 158.274 166.111 166.112C158.274 173.949 149.058 180.155 138.463 184.73C127.867 189.305 116.547 191.589 104.5 191.583Z" fill="black"/>
</g>
</svg>
