<svg width="41" height="40" viewBox="0 0 41 40" fill="none" xmlns="http://www.w3.org/2000/svg">
<g id="codicon:account" clip-path="url(#clip0_25_86)">
<path id="Vector" d="M40.5 19.98C40.5 8.95 31.54 0 20.5 0C9.46 0 0.5 8.95 0.5 19.98C0.5 26.055 3.26 31.53 7.58 35.205C7.62 35.245 7.66 35.245 7.66 35.285C8.02 35.565 8.38 35.845 8.78 36.125C8.98 36.245 9.14 36.4025 9.34 36.5625C12.6452 38.8034 16.5468 40.0009 20.54 40C24.5332 40.0009 28.4348 38.8034 31.74 36.5625C31.94 36.4425 32.1 36.285 32.3 36.1625C32.66 35.885 33.06 35.605 33.42 35.325C33.46 35.285 33.5 35.285 33.5 35.245C37.74 31.5275 40.5 26.055 40.5 19.98ZM20.5 37.4825C16.74 37.4825 13.3 36.2825 10.46 34.285C10.5 33.965 10.58 33.6475 10.66 33.3275C10.8983 32.4603 11.2479 31.6275 11.7 30.85C12.14 30.09 12.66 29.41 13.3 28.81C13.9 28.21 14.62 27.6525 15.34 27.2125C16.1 26.7725 16.9 26.4525 17.78 26.2125C18.6668 25.9735 19.5815 25.8532 20.5 25.855C23.2266 25.8357 25.8531 26.8816 27.82 28.77C28.74 29.69 29.46 30.77 29.98 32.0075C30.26 32.7275 30.46 33.4875 30.58 34.285C27.6279 36.3604 24.1086 37.4768 20.5 37.4825ZM14.38 18.9825C14.0276 18.1755 13.8503 17.303 13.86 16.4225C13.86 15.545 14.02 14.665 14.38 13.865C14.74 13.065 15.22 12.3475 15.82 11.7475C16.42 11.1475 17.14 10.67 17.94 10.31C18.74 9.95 19.62 9.79 20.5 9.79C21.42 9.79 22.26 9.95 23.06 10.31C23.86 10.67 24.58 11.15 25.18 11.7475C25.78 12.3475 26.26 13.0675 26.62 13.865C26.98 14.665 27.14 15.545 27.14 16.4225C27.14 17.3425 26.98 18.1825 26.62 18.98C26.2726 19.7682 25.7846 20.4865 25.18 21.1C24.5663 21.7037 23.848 22.1908 23.06 22.5375C21.4071 23.2168 19.5529 23.2168 17.9 22.5375C17.112 22.1908 16.3937 21.7037 15.78 21.1C15.1745 20.4955 14.6982 19.7767 14.38 18.9825ZM32.94 32.2475C32.94 32.1675 32.9 32.1275 32.9 32.0475C32.5066 30.796 31.9267 29.6111 31.18 28.5325C30.4326 27.446 29.514 26.4877 28.46 25.695C27.6551 25.0894 26.7826 24.5794 25.86 24.175C26.2797 23.8981 26.6686 23.5771 27.02 23.2175C27.6164 22.6288 28.1401 21.9707 28.58 21.2575C29.4659 19.802 29.9234 18.1262 29.9 16.4225C29.9124 15.1613 29.6674 13.9108 29.18 12.7475C28.6988 11.6266 28.0062 10.6089 27.14 9.75C26.2751 8.90008 25.2572 8.22148 24.14 7.75C22.9748 7.26348 21.7227 7.01936 20.46 7.0325C19.1972 7.02015 17.9451 7.26513 16.78 7.7525C15.6531 8.22297 14.6328 8.91596 13.78 9.79C12.9301 10.654 12.2515 11.671 11.78 12.7875C11.2926 13.9508 11.0476 15.2013 11.06 16.4625C11.06 17.3425 11.18 18.1825 11.42 18.98C11.66 19.82 11.98 20.58 12.42 21.2975C12.82 22.0175 13.38 22.6575 13.98 23.2575C14.34 23.6175 14.74 23.935 15.18 24.215C14.2546 24.6302 13.3818 25.1538 12.58 25.775C11.54 26.575 10.62 27.5325 9.86 28.5725C9.10565 29.6466 8.5252 30.8328 8.14 32.0875C8.1 32.1675 8.1 32.2475 8.1 32.2875C4.94 29.09 2.98 24.775 2.98 19.98C2.98 10.35 10.86 2.4775 20.5 2.4775C30.14 2.4775 38.02 10.35 38.02 19.98C38.0148 24.5799 36.1883 28.9906 32.94 32.2475Z" fill="black"/>
</g>
<defs>
<clipPath id="clip0_25_86">
<rect width="40" height="40" fill="white" transform="translate(0.5)"/>
</clipPath>
</defs>
</svg>
