<svg width="27" height="35" viewBox="0 0 27 35" fill="none" xmlns="http://www.w3.org/2000/svg">
<path id="Vector" d="M13.5 26.6667C12.616 26.6667 11.7681 26.3155 11.143 25.6904C10.5179 25.0652 10.1667 24.2174 10.1667 23.3333C10.1667 21.4833 11.65 20 13.5 20C14.3841 20 15.2319 20.3512 15.857 20.9763C16.4822 21.6014 16.8334 22.4493 16.8334 23.3333C16.8334 24.2174 16.4822 25.0652 15.857 25.6904C15.2319 26.3155 14.3841 26.6667 13.5 26.6667ZM23.5 31.6667V15H3.50002V31.6667H23.5ZM23.5 11.6667C24.3841 11.6667 25.2319 12.0179 25.857 12.643C26.4822 13.2681 26.8334 14.1159 26.8334 15V31.6667C26.8334 32.5507 26.4822 33.3986 25.857 34.0237C25.2319 34.6488 24.3841 35 23.5 35H3.50002C2.61597 35 1.76812 34.6488 1.143 34.0237C0.517876 33.3986 0.166687 32.5507 0.166687 31.6667V15C0.166687 13.15 1.65002 11.6667 3.50002 11.6667H5.16669V8.33333C5.16669 6.1232 6.04466 4.00358 7.60746 2.44078C9.17027 0.877974 11.2899 0 13.5 0C14.5944 0 15.678 0.215548 16.689 0.634337C17.7001 1.05313 18.6188 1.66696 19.3926 2.44078C20.1664 3.2146 20.7802 4.13326 21.199 5.1443C21.6178 6.15535 21.8334 7.23898 21.8334 8.33333V11.6667H23.5ZM13.5 3.33333C12.1739 3.33333 10.9022 3.86012 9.96449 4.7978C9.0268 5.73548 8.50002 7.00725 8.50002 8.33333V11.6667H18.5V8.33333C18.5 7.00725 17.9732 5.73548 17.0356 4.7978C16.0979 3.86012 14.8261 3.33333 13.5 3.33333Z" fill="black"/>
</svg>
