<svg width="42" height="42" viewBox="0 0 42 42" fill="none" xmlns="http://www.w3.org/2000/svg">
<g id="icon-park-outline:database-fail">
<g id="Group">
<path id="Vector" d="M38.0833 26.9792C38.0833 31.6967 34.2592 35.5208 29.5417 35.5208C28.0127 35.5208 26.576 35.1194 25.334 34.4147C24.0187 33.6692 22.9246 32.5882 22.1633 31.282C21.4019 29.9758 21.0005 28.4911 21 26.9792C21 24.7857 21.8268 22.7852 23.185 21.2733C23.9852 20.3798 24.9651 19.6654 26.0605 19.1767C27.1559 18.688 28.3422 18.4361 29.5417 18.4375C34.2592 18.4375 38.0833 22.2616 38.0833 26.9792Z" stroke="black" stroke-width="4" stroke-linecap="round" stroke-linejoin="round"/>
<path id="Vector_2" d="M29.5416 10.75V18.4375C28.3421 18.4361 27.1559 18.688 26.0605 19.1767C24.9651 19.6654 23.9852 20.3798 23.1849 21.2733C21.7754 22.8392 20.9969 24.8723 21 26.9792C21.0005 28.4911 21.4019 29.9758 22.1632 31.282C22.9246 32.5882 24.0187 33.6692 25.334 34.4147C23.0602 35.1023 20.0416 35.5208 16.7291 35.5208C9.65321 35.5208 3.91663 33.6084 3.91663 31.25V10.75" stroke="black" stroke-width="4" stroke-linecap="round" stroke-linejoin="round"/>
<path id="Vector_3" d="M3.91663 24.4166C3.91663 26.775 9.65321 28.6875 16.7291 28.6875C18.2726 28.6875 19.7529 28.5969 21.123 28.4295M3.91663 17.5833C3.91663 19.9416 9.65321 21.8541 16.7291 21.8541C19.0832 21.8541 21.2895 21.6423 23.1849 21.2733M32.1041 29.5416L29.5416 26.9791M29.5416 26.9791L32.1041 24.4166M29.5416 26.9791L26.9791 24.4166M29.5416 26.9791L26.9791 29.5416M29.5416 10.75C29.5416 13.1083 23.805 15.0208 16.7291 15.0208C9.65321 15.0208 3.91663 13.1083 3.91663 10.75C3.91663 8.39161 9.65321 6.47913 16.7291 6.47913C23.805 6.47913 29.5416 8.39161 29.5416 10.75Z" stroke="black" stroke-width="4" stroke-linecap="round" stroke-linejoin="round"/>
</g>
</g>
</svg>
